<svg height="174" viewBox="0 0 174 174" width="174" xmlns="http://www.w3.org/2000/svg"><path d="m28.8 140.2h39.1l16 13.5c2.2 2.9 5.9 2.9 8.2 0l16-13.5h39.1c3.2 0 5.8-3.3 5.8-7.4v-13.8c0-4.1-2.6-7.4-5.8-7.4h-118.4c-3.2 0-5.8 3.3-5.8 7.4v13.9c0 4 2.6 7.3 5.8 7.3zm0-90.6h118.4c3.2 0 5.8-3.3 5.8-7.4v-13.9c0-4.1-2.6-7.4-5.8-7.4h-118.4c-3.2 0-5.8 3.3-5.8 7.4v13.9c0 4 2.6 7.4 5.8 7.4zm0 44.4h118.4c3.2 0 5.8-3.3 5.8-7.4v-13.9c0-4.1-2.6-7.4-5.8-7.4h-118.4c-3.2 0-5.8 3.3-5.8 7.4v13.9c0 4.1 2.6 7.4 5.8 7.4z"/></svg>