<svg height="174" viewBox="0 0 174 174" width="174" xmlns="http://www.w3.org/2000/svg"><path d="m31.3 43.8h2.7c3 7.5 11.1 12.9 20.6 12.9s17.6-5.4 20.6-12.9h72.5c4 0 7.3-2.9 7.3-6.5s-3.3-6.5-7.3-6.5h-72.6c-3-7.4-11.1-12.8-20.6-12.8-9.4 0-17.5 5.4-20.5 12.9h-2.7c-4 0-7.3 2.9-7.3 6.5s3.3 6.4 7.3 6.4zm116.3 37.4h-2.7c-3-7.6-11.2-12.9-20.6-12.9-9.3 0-17.5 5.3-20.6 12.9h-72.4c-4 0-7.3 2.9-7.3 6.5s3.3 6.5 7.3 6.5h72.5c3 7.6 11.2 12.9 20.6 12.9 9.3 0 17.5-5.3 20.6-12.9h2.7c4 0 7.3-2.9 7.3-6.5-.2-3.6-3.4-6.5-7.4-6.5zm0 50.4h-52.2c-3-7.5-11.1-12.9-20.6-12.9s-17.6 5.4-20.6 12.9h-23c-4 0-7.3 2.9-7.3 6.5s3.3 6.5 7.3 6.5h23c3 7.5 11.1 12.9 20.6 12.9s17.6-5.4 20.6-12.9h52.1c4 0 7.3-2.9 7.3-6.5s-3.2-6.5-7.2-6.5z"/></svg>